<?xml version="1.0" encoding="UTF-8" standalone="no"?><svg xmlns="http://www.w3.org/2000/svg" xmlns:xlink="http://www.w3.org/1999/xlink" contentScriptType="application/ecmascript" contentStyleType="text/css" height="512.75px" preserveAspectRatio="none" style="width:2149px;height:512px;" version="1.1" viewBox="0 0 2149 512" width="2149px" zoomAndPan="magnify"><defs><filter height="300%" id="f1mh8dlxhpy8bm" width="300%" x="-1" y="-1"><feGaussianBlur result="blurOut" stdDeviation="3.5"/><feColorMatrix in="blurOut" result="blurOut2" type="matrix" values="0 0 0 0 0 0 0 0 0 0 0 0 0 0 0 0 0 0 .4 0"/><feOffset dx="7.0" dy="7.0" in="blurOut2" result="blurOut3"/><feBlend in="SourceGraphic" in2="blurOut3" mode="normal"/></filter></defs><g><!--MD5=[783fe160cf505bf6c44b4c0bc12faffa]
cluster dacapo_sample--><polygon fill="#FFFFFF" filter="url(#f1mh8dlxhpy8bm)" points="38.5,42,208.25,42,220.5,84.4888,2110.5,84.4888,2110.5,491.75,38.5,491.75,38.5,42" style="stroke: #000000; stroke-width: 2.625;"/><line style="stroke: #000000; stroke-width: 2.625;" x1="38.5" x2="220.5" y1="84.4888" y2="84.4888"/><text fill="#000000" font-family="monospace" font-size="24.5" font-weight="bold" lengthAdjust="spacingAndGlyphs" textLength="159.25" x="45.5" y="70.1316">dacapo_sample</text><!--MD5=[9b44617d1a9dfaa3ff207d23a9345ea0]
class migrations--><rect fill="#FEFECE" filter="url(#f1mh8dlxhpy8bm)" height="159.4021" id="migrations" style="stroke: #A80036; stroke-width: 2.625;" width="602" x="71.75" y="107.625"/><ellipse cx="312.8125" cy="135.625" fill="#ADD1B2" rx="19.25" ry="19.25" style="stroke: #A80036; stroke-width: 1.75;"/><path d="M310.5703,133.3008 L318.4727,133.3008 L318.4727,136.2266 L310.5703,136.2266 L310.5703,144.2383 L319.7305,144.2383 L319.7305,147.1641 L305.8945,147.1641 L305.8945,123.7852 L319.1563,123.7852 L319.1563,126.7109 L310.5703,126.7109 L310.5703,133.3008 Z "/><text fill="#000000" font-family="monospace" font-size="21" lengthAdjust="spacingAndGlyphs" textLength="105" x="348.6875" y="143.0283">migrations</text><line style="stroke: #A80036; stroke-width: 2.625;" x1="73.5" x2="672" y1="163.625" y2="163.625"/><ellipse cx="91" cy="182.875" fill="none" rx="5.25" ry="5.25" style="stroke: #038048; stroke-width: 1.75;"/><text fill="#000000" font-family="monospace" font-size="19.25" lengthAdjust="spacingAndGlyphs" textLength="556.5" x="106.75" y="189.9784">id       [PK]              int(10) unsigned  not null</text><text fill="#000000" font-family="monospace" font-size="19.25" lengthAdjust="spacingAndGlyphs" textLength="556.5" x="106.75" y="215.1124">migration                  varchar(255)      not null</text><text fill="#000000" font-family="monospace" font-size="19.25" lengthAdjust="spacingAndGlyphs" textLength="556.5" x="106.75" y="240.2465">batch                      int(11)           not null</text><line style="stroke: #A80036; stroke-width: 2.625;" x1="73.5" x2="672" y1="253.0271" y2="253.0271"/><!--MD5=[5739ad24875601642eb98a720d13f4d4]
class tags--><rect fill="#FEFECE" filter="url(#f1mh8dlxhpy8bm)" height="134.2681" id="tags" style="stroke: #A80036; stroke-width: 2.625;" width="591.5" x="794.5" y="328.125"/><ellipse cx="1061.8125" cy="356.125" fill="#ADD1B2" rx="19.25" ry="19.25" style="stroke: #A80036; stroke-width: 1.75;"/><path d="M1059.5703,353.8008 L1067.4727,353.8008 L1067.4727,356.7266 L1059.5703,356.7266 L1059.5703,364.7383 L1068.7305,364.7383 L1068.7305,367.6641 L1054.8945,367.6641 L1054.8945,344.2852 L1068.1563,344.2852 L1068.1563,347.2109 L1059.5703,347.2109 L1059.5703,353.8008 Z "/><text fill="#000000" font-family="monospace" font-size="21" lengthAdjust="spacingAndGlyphs" textLength="42" x="1097.6875" y="363.5283">tags</text><line style="stroke: #A80036; stroke-width: 2.625;" x1="796.25" x2="1384.25" y1="384.125" y2="384.125"/><ellipse cx="813.75" cy="403.375" fill="none" rx="5.25" ry="5.25" style="stroke: #038048; stroke-width: 1.75;"/><text fill="#000000" font-family="monospace" font-size="19.25" lengthAdjust="spacingAndGlyphs" textLength="546" x="829.5" y="410.4784">id   [PK]              bigint(20) unsigned  not null</text><text fill="#000000" font-family="monospace" font-size="19.25" lengthAdjust="spacingAndGlyphs" textLength="546" x="829.5" y="435.6124">title                  varchar(255)         not null</text><line style="stroke: #A80036; stroke-width: 2.625;" x1="796.25" x2="1384.25" y1="448.3931" y2="448.3931"/><!--MD5=[30bf4ec0ed1e772dea359ad33faef2b2]
class task_tag--><rect fill="#FEFECE" filter="url(#f1mh8dlxhpy8bm)" height="134.2681" id="task_tag" style="stroke: #A80036; stroke-width: 2.625;" width="612.5" x="66.5" y="328.125"/><ellipse cx="323.3125" cy="356.125" fill="#ADD1B2" rx="19.25" ry="19.25" style="stroke: #A80036; stroke-width: 1.75;"/><path d="M321.0703,353.8008 L328.9727,353.8008 L328.9727,356.7266 L321.0703,356.7266 L321.0703,364.7383 L330.2305,364.7383 L330.2305,367.6641 L316.3945,367.6641 L316.3945,344.2852 L329.6563,344.2852 L329.6563,347.2109 L321.0703,347.2109 L321.0703,353.8008 Z "/><text fill="#000000" font-family="monospace" font-size="21" lengthAdjust="spacingAndGlyphs" textLength="84" x="359.1875" y="363.5283">task_tag</text><line style="stroke: #A80036; stroke-width: 2.625;" x1="68.25" x2="677.25" y1="384.125" y2="384.125"/><polygon fill="none" points="85.75,394.625,92.75,401.625,85.75,408.625,78.75,401.625" style="stroke: #B38D22; stroke-width: 1.75;"/><text fill="#000000" font-family="monospace" font-size="19.25" lengthAdjust="spacingAndGlyphs" textLength="567" x="101.5" y="410.4784">task_id    [FK]    [MUL] bigint(20) unsigned  not null</text><polygon fill="none" points="85.75,419.759,92.75,426.759,85.75,433.759,78.75,426.759" style="stroke: #B38D22; stroke-width: 1.75;"/><text fill="#000000" font-family="monospace" font-size="19.25" lengthAdjust="spacingAndGlyphs" textLength="567" x="101.5" y="435.6124">tag_id     [FK]    [MUL] bigint(20) unsigned  not null</text><line style="stroke: #A80036; stroke-width: 2.625;" x1="68.25" x2="677.25" y1="448.3931" y2="448.3931"/><!--MD5=[5e4e31d7e2f71c1af0a05003f601be6a]
class tasks--><rect fill="#FEFECE" filter="url(#f1mh8dlxhpy8bm)" height="159.4021" id="tasks" style="stroke: #A80036; stroke-width: 2.625;" width="612.5" x="784" y="107.625"/><ellipse cx="1056.5625" cy="135.625" fill="#ADD1B2" rx="19.25" ry="19.25" style="stroke: #A80036; stroke-width: 1.75;"/><path d="M1054.3203,133.3008 L1062.2227,133.3008 L1062.2227,136.2266 L1054.3203,136.2266 L1054.3203,144.2383 L1063.4805,144.2383 L1063.4805,147.1641 L1049.6445,147.1641 L1049.6445,123.7852 L1062.9063,123.7852 L1062.9063,126.7109 L1054.3203,126.7109 L1054.3203,133.3008 Z "/><text fill="#000000" font-family="monospace" font-size="21" lengthAdjust="spacingAndGlyphs" textLength="52.5" x="1092.4375" y="143.0283">tasks</text><line style="stroke: #A80036; stroke-width: 2.625;" x1="785.75" x2="1394.75" y1="163.625" y2="163.625"/><ellipse cx="803.25" cy="182.875" fill="none" rx="5.25" ry="5.25" style="stroke: #038048; stroke-width: 1.75;"/><text fill="#000000" font-family="monospace" font-size="19.25" lengthAdjust="spacingAndGlyphs" textLength="567" x="819" y="189.9784">id     [PK]              bigint(20) unsigned  not null</text><polygon fill="none" points="803.25,199.259,810.25,206.259,803.25,213.259,796.25,206.259" style="stroke: #B38D22; stroke-width: 1.75;"/><text fill="#000000" font-family="monospace" font-size="19.25" lengthAdjust="spacingAndGlyphs" textLength="567" x="819" y="215.1124">user_id    [FK][UK]      bigint(20) unsigned  not null</text><text fill="#000000" font-family="monospace" font-size="19.25" lengthAdjust="spacingAndGlyphs" textLength="567" x="819" y="240.2465">content                  varchar(255)         not null</text><line style="stroke: #A80036; stroke-width: 2.625;" x1="785.75" x2="1394.75" y1="253.0271" y2="253.0271"/><!--MD5=[8413f8248b2da7966d2de021109ec289]
class users--><rect fill="#FEFECE" filter="url(#f1mh8dlxhpy8bm)" height="134.2681" id="users" style="stroke: #A80036; stroke-width: 2.625;" width="581" x="1501.5" y="119.875"/><ellipse cx="1758.3125" cy="147.875" fill="#ADD1B2" rx="19.25" ry="19.25" style="stroke: #A80036; stroke-width: 1.75;"/><path d="M1756.0703,145.5508 L1763.9727,145.5508 L1763.9727,148.4766 L1756.0703,148.4766 L1756.0703,156.4883 L1765.2305,156.4883 L1765.2305,159.4141 L1751.3945,159.4141 L1751.3945,136.0352 L1764.6563,136.0352 L1764.6563,138.9609 L1756.0703,138.9609 L1756.0703,145.5508 Z "/><text fill="#000000" font-family="monospace" font-size="21" lengthAdjust="spacingAndGlyphs" textLength="52.5" x="1794.1875" y="155.2783">users</text><line style="stroke: #A80036; stroke-width: 2.625;" x1="1503.25" x2="2080.75" y1="175.875" y2="175.875"/><ellipse cx="1520.75" cy="195.125" fill="none" rx="5.25" ry="5.25" style="stroke: #038048; stroke-width: 1.75;"/><text fill="#000000" font-family="monospace" font-size="19.25" lengthAdjust="spacingAndGlyphs" textLength="535.5" x="1536.5" y="202.2284">id  [PK]              bigint(20) unsigned  not null</text><text fill="#000000" font-family="monospace" font-size="19.25" lengthAdjust="spacingAndGlyphs" textLength="535.5" x="1536.5" y="227.3624">name                  varchar(255)         not null</text><line style="stroke: #A80036; stroke-width: 2.625;" x1="1503.25" x2="2080.75" y1="240.1431" y2="240.1431"/><!--MD5=[0f9c97763cc81c3d9ab17e7f2f27c05f]
reverse link task_tag to tasks--><path d="M620.0093,323.8935 C682.9392,305.5378 751.009,285.6858 815.2445,266.9503 " fill="none" id="task_tag&lt;-tasks" style="stroke: #A80036; stroke-width: 1.75;"/><line style="stroke: #A80036; stroke-width: 1.75;" x1="619.262" x2="608.762" y1="324.1105" y2="338.1105"/><line style="stroke: #A80036; stroke-width: 1.75;" x1="619.262" x2="602.882" y1="324.1105" y2="317.9505"/><line style="stroke: #A80036; stroke-width: 1.75;" x1="619.262" x2="605.822" y1="324.1105" y2="328.0305"/><ellipse cx="629.342" cy="321.1705" fill="none" rx="7" ry="7" style="stroke: #A80036; stroke-width: 1.75;"/><!--MD5=[d4fdb471d92f8661b90c610736a39583]
reverse link task_tag to tags--><path d="M693.6913,395.5 C727.174,395.5 761.1065,395.5 794.2918,395.5 " fill="none" id="task_tag&lt;-tags" style="stroke: #A80036; stroke-width: 1.75;"/><line style="stroke: #A80036; stroke-width: 1.75;" x1="693.371" x2="679.371" y1="395.5" y2="406"/><line style="stroke: #A80036; stroke-width: 1.75;" x1="693.371" x2="679.371" y1="395.5" y2="385"/><line style="stroke: #A80036; stroke-width: 1.75;" x1="693.371" x2="679.371" y1="395.5" y2="395.5"/><ellipse cx="703.871" cy="395.5" fill="none" rx="7" ry="7" style="stroke: #A80036; stroke-width: 1.75;"/><!--MD5=[509923f449270d75e33cf2eab7cfafc1]
reverse link tasks to users--><path d="M1411.4118,187.25 C1441.3542,187.25 1471.5925,187.25 1501.234,187.25 " fill="none" id="tasks&lt;-users" style="stroke: #A80036; stroke-width: 1.75;"/><line style="stroke: #A80036; stroke-width: 1.75;" x1="1410.7398" x2="1396.7398" y1="187.25" y2="197.75"/><line style="stroke: #A80036; stroke-width: 1.75;" x1="1410.7398" x2="1396.7398" y1="187.25" y2="176.75"/><line style="stroke: #A80036; stroke-width: 1.75;" x1="1410.7398" x2="1396.7398" y1="187.25" y2="187.25"/><ellipse cx="1421.2398" cy="187.25" fill="none" rx="7" ry="7" style="stroke: #A80036; stroke-width: 1.75;"/><!--MD5=[523b2be80e38b39a0847c51b4da6ca2c]
@startuml
skinparam {
defaultFontName Monospaced
}
left to right direction
package dacapo_sample {
entity "migrations" as migrations {
    + id       [PK]              int(10) unsigned  not null 
      migration                  varchar(255)      not null 
      batch                      int(11)           not null 
}
entity "tags" as tags {
    + id   [PK]              bigint(20) unsigned  not null 
      title                  varchar(255)         not null 
}
entity "task_tag" as task_tag {
    # task_id    [FK]    [MUL] bigint(20) unsigned  not null 
    # tag_id     [FK]    [MUL] bigint(20) unsigned  not null 
}
entity "tasks" as tasks {
    + id     [PK]              bigint(20) unsigned  not null 
    # user_id    [FK][UK]      bigint(20) unsigned  not null 
      content                  varchar(255)         not null 
}
entity "users" as users {
    + id  [PK]              bigint(20) unsigned  not null 
      name                  varchar(255)         not null 
}
}

task_tag }o- - tasks
task_tag }o- - tags
tasks }o- - users
@enduml

PlantUML version 1.2019.11(Sun Sep 22 19:02:15 JST 2019)
(GPL source distribution)
Java Runtime: OpenJDK Runtime Environment
JVM: OpenJDK 64-Bit Server VM
Java Version: 11.0.4+10-b520.11
Operating System: Windows 10
Default Encoding: MS932
Language: ja
Country: JP
--></g></svg>